<?xml version="1.0" encoding="iso-8859-1"?>
<!-- Generator: Adobe Illustrator 19.0.0, SVG Export Plug-In . SVG Version: 6.00 Build 0)  -->
<svg xmlns="http://www.w3.org/2000/svg" xmlns:xlink="http://www.w3.org/1999/xlink" version="1.1" id="Layer_1" x="0px" y="0px" viewBox="0 0 512 512" style="enable-background:new 0 0 512 512;" xml:space="preserve">
<path style="fill:#968789;" d="M188.082,335.747v105.567h135.837V335.747H188.082z M280.207,379.021  c0,6.683-5.468,12.152-12.152,12.152h-24.11c-6.683,0-12.152-5.468-12.152-12.152v-24.11c0-6.683,5.468-12.152,12.152-12.152h24.11  c6.683,0,12.152,5.468,12.152,12.152V379.021z"/>
<g>
	<rect x="188.082" y="335.746" style="fill:#7D7072;" width="20.898" height="105.566"/>
	<rect x="7.837" y="53.145" style="fill:#7D7072;" width="496.327" height="296.751"/>
</g>
<rect x="7.837" y="53.145" style="fill:#5E5456;" width="20.898" height="296.751"/>
<rect x="28.735" y="74.043" style="fill:#FF5948;" width="454.531" height="254.955"/>
<rect x="28.735" y="74.043" style="fill:#D44A3C;" width="20.898" height="254.955"/>
<path style="fill:#FFD359;" d="M372.088,164.509l-6.403,6.403c-0.953,0.953-0.953,2.498,0,3.451l33.946,33.946  c0.953,0.953,0.953,2.498,0,3.451l-27.041,27.041c-0.953,0.953-2.498,0.953-3.451,0l-33.946-33.946  c-0.953-0.953-2.498-0.953-3.451,0l-6.403,6.403c-1.536,1.536-4.163,0.45-4.166-1.722l-0.066-46.816  c-0.002-1.35,1.093-2.446,2.444-2.444l46.816,0.066C372.539,160.346,373.624,162.973,372.088,164.509z"/>
<polygon style="fill:#36C8E3;" points="272.115,225.465 123.724,225.465 103.349,133.514 272.115,133.514 "/>
<g>
	<circle style="fill:#FFD359;" cx="131.636" cy="271.088" r="16.718"/>
	<circle style="fill:#FFD359;" cx="272.112" cy="271.088" r="16.718"/>
</g>
<rect x="127.08" y="437.958" style="fill:#7D7072;" width="257.045" height="20.898"/>
<rect x="127.08" y="437.958" style="fill:#5E5456;" width="20.898" height="20.898"/>
<path d="M375.043,172.695l2.588-2.585c0,0,0,0,0-0.001c2.947-2.946,3.822-7.336,2.23-11.186s-5.315-6.339-9.482-6.346l-46.815-0.066  c-0.006,0-0.011,0-0.017,0c-2.745,0-5.326,1.068-7.266,3.007c-1.945,1.945-3.015,4.529-3.01,7.277l0.066,46.783  c0.006,4.166,2.499,7.886,6.352,9.477c3.85,1.59,8.244,0.716,11.192-2.23l2.588-2.586l30.129,30.11  c1.941,1.94,4.522,3.008,7.268,3.008c2.745,0,5.326-1.068,7.267-3.008l27.04-27.022c4.007-4.004,4.007-10.52,0-14.524  L375.043,172.695z M370.866,229.462l-30.13-30.11c-2.004-2.002-4.636-3.003-7.267-3.003c-1.534,0-3.067,0.34-4.475,1.019  l-0.041-29.187l29.207,0.041c-1.847,3.825-1.186,8.566,1.984,11.734l30.13,30.11L370.866,229.462z"/>
<path d="M279.952,133.599V118.01h29.338c4.329,0,7.837-3.507,7.837-7.832c0-4.325-3.508-7.832-7.837-7.832h-30.905  c-7.778,0-14.106,6.324-14.106,14.097v9.324h-160.93c-2.376,0-4.625,1.077-6.112,2.929c-1.488,1.852-2.054,4.278-1.54,6.596  l5.992,27.026c0.001,0.006,0.003,0.013,0.004,0.019l7.178,32.372c0.003,0.015,0.007,0.03,0.01,0.045l7.19,32.426  c0.795,3.585,3.977,6.137,7.651,6.137h140.554v13.226H103.349c-4.329,0-7.837,3.507-7.837,7.831c0,4.325,3.508,7.831,7.837,7.831  h5.398c-1.073,2.754-1.669,5.746-1.669,8.875c0,13.53,11.015,24.538,24.555,24.538s24.555-11.008,24.555-24.538  c0-3.129-0.596-6.121-1.669-8.875h94.711c-1.073,2.754-1.669,5.746-1.669,8.875c0,13.53,11.015,24.538,24.555,24.538  s24.555-11.008,24.555-24.538c0-10.793-7.011-19.973-16.718-23.249v-22.346v-91.888H279.952z M119.132,168.579h145.147v16.736  H122.843L119.132,168.579z M264.279,141.431v11.486h-148.62l-2.547-11.486H264.279z M126.317,200.978h137.962v16.678H130.015  L126.317,200.978z M140.515,271.083c0,4.894-3.984,8.875-8.882,8.875c-4.897,0-8.882-3.981-8.882-8.875  c0-4.894,3.984-8.875,8.882-8.875C136.531,262.207,140.515,266.188,140.515,271.083z M272.115,279.958  c-4.897,0-8.882-3.981-8.882-8.875c0-4.894,3.984-8.875,8.882-8.875s8.882,3.981,8.882,8.875  C280.997,275.977,277.012,279.958,272.115,279.958z"/>
<path d="M75.755,342H15.673V61.116h379.82c4.329,0,7.837-3.507,7.837-7.832s-3.508-7.832-7.837-7.832H7.837  C3.508,45.453,0,48.959,0,53.284v296.547c0,4.325,3.508,7.832,7.837,7.832h67.918c4.329,0,7.837-3.507,7.837-7.832  S80.084,342,75.755,342z"/>
<path d="M504.163,45.453h-72.62c-4.329,0-7.837,3.507-7.837,7.832s3.508,7.832,7.837,7.832h64.784v280.885H323.959  c-0.014,0-0.026-0.002-0.041-0.002c-0.015,0-0.027,0.002-0.041,0.002H188.122c-0.014,0-0.026-0.002-0.041-0.002  c-0.015,0-0.027,0.002-0.041,0.002h-77.107c-4.329,0-7.837,3.507-7.837,7.831c0,4.325,3.508,7.832,7.837,7.832h69.311v72.337  h-53.165c-4.329,0-7.837,3.507-7.837,7.832v20.883c0,4.325,3.508,7.832,7.837,7.832h257.045c4.329,0,7.837-3.507,7.837-7.832  v-20.883c0-4.325-3.508-7.832-7.837-7.832h-52.369v-17.718c0-4.325-3.508-7.832-7.837-7.832c-4.329,0-7.837,3.507-7.837,7.832  v17.718H195.918v-72.337h28.035v21.278c0,11.008,8.967,19.965,19.989,19.965h24.116c11.022,0,19.989-8.956,19.989-19.965v-21.278  h28.035v14.762c0,4.325,3.508,7.831,7.837,7.831c4.329,0,7.837-3.507,7.837-7.831v-14.762h50.155v4.909  c0,4.325,3.508,7.832,7.837,7.832s7.837-3.507,7.837-7.832v-4.909h17.502v4.909c0,4.325,3.508,7.832,7.837,7.832  s7.837-3.507,7.837-7.832v-4.909h18.025v4.909c0,4.325,3.508,7.832,7.837,7.832s7.837-3.507,7.837-7.832v-4.909h39.706  c4.329,0,7.837-3.507,7.837-7.832V53.284C512,48.959,508.492,45.453,504.163,45.453z M376.288,450.883H134.916v-5.221h53.125  c0.014,0,0.026,0.002,0.041,0.002c0.015,0,0.027-0.002,0.041-0.002h135.756c0.014,0,0.026,0.002,0.041,0.002  s0.027-0.002,0.041-0.002h52.33v5.221H376.288z M272.374,378.942c0,2.331-1.977,4.302-4.315,4.302h-24.116  c-2.339,0-4.315-1.97-4.315-4.302v-21.278h32.747V378.942z"/>
<path d="M20.898,74.167v254.781c0,4.325,3.508,7.832,7.837,7.832h454.531c4.329,0,7.837-3.507,7.837-7.832V74.167  c0-4.325-3.508-7.832-7.837-7.832H28.735C24.406,66.336,20.898,69.843,20.898,74.167z M36.571,81.999h438.857v239.118H36.571V81.999  z"/>
<g>
</g>
<g>
</g>
<g>
</g>
<g>
</g>
<g>
</g>
<g>
</g>
<g>
</g>
<g>
</g>
<g>
</g>
<g>
</g>
<g>
</g>
<g>
</g>
<g>
</g>
<g>
</g>
<g>
</g>
</svg>
